<?xml version="1.0" encoding="utf-8"?>
<!-- Generator: Adobe Illustrator 28.1.0, SVG Export Plug-In . SVG Version: 6.00 Build 0)  -->
<svg version="1.1" id="Layer_1" xmlns="http://www.w3.org/2000/svg" xmlns:xlink="http://www.w3.org/1999/xlink" x="0px" y="0px"
	 viewBox="0 0 318.3 253.2" style="enable-background:new 0 0 318.3 253.2;" xml:space="preserve">
<style type="text/css">
	.st0{fill:none;}
	.st1{enable-background:new    ;}
</style>
<path d="M167.6,54.5c-0.8,0-1.6-0.3-2.2-0.9l-7.5-7.8l7.6-9.9c1-1.3,2.9-1.6,4.2-0.6c1.3,1,1.6,2.9,0.6,4.2l-4.4,5.9l3.9,4
	c1.2,1.2,1.1,3.1-0.1,4.2C169.1,54.2,168.4,54.5,167.6,54.5z"/>
<path d="M198.3,58.7c-0.9,0-1.8-0.4-2.4-1.2c-1-1.3-0.7-3.2,0.6-4.2l5.1-3.9l-1.8-7.7c-0.4-1.6,0.6-3.2,2.2-3.6
	c1.6-0.4,3.2,0.6,3.6,2.2l2.8,11.5l-8.3,6.3C199.6,58.5,198.9,58.7,198.3,58.7z"/>
<g>
	<path d="M195.2,46.6c-5.6-4.1-13-4.9-20.8-2.4c-7.4,2.4-14.3,7.7-19.6,14.9c-3.3,4.5-5.8,9.6-7.1,14.7l-1.4,5.6l5.6-1.3
		c15.3-3.6,29.3-2.2,40.9,4c1.9,0.8,3.8,1.6,5.6,2.6l1.4-2.9C206.6,68,204.6,53.5,195.2,46.6z M195,75.4c-8.1-4.1-17.2-6.2-26.9-6.2
		c-3.8,0-7.7,0.3-11.7,1c1.1-2.4,2.4-4.7,4-6.9c4.4-6,10.1-10.4,16.1-12.4c5.6-1.9,10.8-1.4,14.5,1.4C197,56.6,198.5,65.8,195,75.4z
		"/>
	<path d="M118.2,253.3c-12.8,0-24.6-3.6-34.4-10.8c-32.5-23.7-32.3-79.5,0.4-124.3c17.5-24,41.6-41,66.1-46.9
		c18-4.3,34.6-2.2,48.2,5.9c1.5,0.9,2.8,1.7,4,2.6l0.3,0.2c15.8,11.6,24.3,31,24.1,54.6c-0.2,23.3-9,48-24.7,69.5
		s-36.5,37.4-58.6,44.7C134.8,251.8,126.3,253.3,118.2,253.3z M168.1,76.2c-5.2,0-10.6,0.7-16.2,2c-22.9,5.4-45.5,21.5-62,44.2
		c-30.4,41.7-31.3,93.1-1.9,114.5c14,10.2,33,12.2,53.3,5.5c20.7-6.9,40.3-21.9,55.2-42.2c14.9-20.4,23.2-43.6,23.4-65.4
		c0.2-21.4-7.4-38.8-21.4-49.1l-0.3-0.2c-1-0.7-2-1.4-3.2-2.1C187.1,78.6,178,76.2,168.1,76.2z"/>
</g>
<path d="M230,174c-19-23.6-43.5-38.6-70.8-43.5c-27.6-4.9-59.1,6.6-91,33.4c-23.6,19.8-40.2,41.9-41.4,44.3c0,0,0,0,0,0.1l0,0
	c0.3,0.1,0.7,0.1,1,0.2c0.2,0,0.3,0,0.5,0c0.4-0.1,0.7-0.3,1.1-0.5c1.4-2,66.2-80.6,128.4-69.5c61.3,10.9,78.2,53.8,93,68.5
	c0,0,0,0,0,0.1h1c0-0.1,0.1-0.2,0.1-0.3C252.1,206,244.3,191.7,230,174L230,174z"/>
<path d="M34,211.7v0.1C34,211.8,34,211.8,34,211.7z"/>
<path d="M276.2,139.3c0.3,0,0.6,0,0.9-0.1h0.1l0,0c-1.2-1.3-3.2-2.8-6-4.1c-18.4-9.3-49.1-26.6-114.7-26.6c-27,0-70.6,4.4-125,25.4
	c-0.8,0.3-8.5,3.8-10.2,6.1l2.1,0.1c0-0.1,0.3-0.1,0.4-0.1c53.3-20.6,106.4-23.4,132.7-23.4c62.4,0,116,22,118,22.9
	C275.1,139.3,275.6,139.3,276.2,139.3L276.2,139.3z"/>
<path d="M156.4,99c-3.1,0-6.4-0.1-9.8-0.3c-19.9-1.4-35.5-15.5-45-40.8c-6.4-17-5.7-33.6-5.6-36.8c0-0.4,0.2-0.7,0.4-0.9l0,0
	c0.7-0.6,1.8-0.1,1.9,0.8c2.5,21.4,11.3,68,48.7,70.7c44.6,3.2,70.3-17.3,78.6-26.2C245.8,43.9,259.9,23,262.5,17
	c0.3-0.7,1.2-0.9,1.8-0.5l0.4,0.3c0.5,0.3,0.6,1,0.4,1.5c-2.4,4.9-14.2,29-35.8,52.2C220.8,79.4,197.8,99,156.4,99L156.4,99z"/>
<g>
	<line class="st0" x1="97.5" y1="16.6" x2="98.8" y2="0"/>
	<polygon points="104.1,25.9 97.1,22.2 89.5,24.7 98.2,8 	"/>
</g>
<g>
	<line class="st0" x1="265.4" y1="13.8" x2="271.4" y2="1.5"/>
	<polygon points="268.2,24.8 263,18.8 255,18.5 269.2,6 	"/>
</g>
<g class="st1">
	<path d="M96.1,62.6c-0.7,1.2-1.5,1.6-2.5,1.6c-1.2,0-2.7-0.6-3.1-2.2c-0.6,0.7-2.3,2.2-4.4,2.2c-2.4,0-4.5-1.8-4.5-5.2
		c0-4.7,4.1-9.2,8-9.2c1.2,0,2.3,0.5,3.1,1.8c0-0.1,0.4-1.2,1.4-1.2c0.5,0,1,0.3,1,1c0,0.1,0,0.2-0.1,0.7l-2.1,8.4
		c-0.2,0.7-0.2,0.8-0.2,1.3s0.1,1.5,1,1.5c1.2,0,1.7-1.9,2.2-3.6c0.2-0.8,0.2-0.9,0.8-0.9c0.3,0,0.7,0,0.7,0.4
		C97.3,59.5,96.9,61.4,96.1,62.6z M92.2,53.8c0-0.3-0.4-3.1-2.6-3.1c-1.3,0-2.8,1.1-3.8,3C84.8,55.5,84,59,84,60.3
		c0,1.7,0.7,3,2.2,3c0.5,0,1.5-0.2,2.8-1.3c0.7-0.7,1.4-1.5,1.7-2.5l1.3-5.3C92.1,54.1,92.2,53.9,92.2,53.8z"/>
</g>
<g class="st1">
	<path d="M254.7,68.1c-2.3,0-4.4-1.8-4.4-5.2c0-0.4,0-1.2,0.3-2.3l3.1-12.4c0.1-0.4,0.1-0.5,0.1-0.7c0-0.3,0-0.5-1.5-0.5
		c-0.4,0-0.8,0-0.8-0.4c0-0.7,0.4-0.7,0.8-0.7l3.5-0.3c0.4,0,0.9-0.1,0.9,0.4c0,0.1-0.1,0.4-0.1,0.5l-2.2,8.8
		c0.7-0.6,2.1-1.6,3.8-1.6c2.5,0,4.5,2,4.5,5.2C262.7,63.5,258.6,68.1,254.7,68.1z M258.1,54.5c-1.6,0-3.3,1.6-4.3,3.1
		c-0.2,0.3-1.4,4.6-1.4,6.3c0,2.1,1,3.2,2.3,3.2c1,0,2.6-0.8,3.8-3.1c0.8-1.5,1.7-5.1,1.7-6.6C260.2,56,259.6,54.5,258.1,54.5z"/>
</g>
<g>
	<path d="M38.3,0c-0.1,0.5,0,1.1-0.3,1.5C27.5,16.3,20.3,32.6,15.7,50.1c-2.2,8.3-3.9,16.8-4.9,25.3c-1,9.1-2,18.1-2.4,27.2
		C7.9,114.1,8,125.5,8,136.9c0,6.3,0.3,12.5,0.8,18.8c0.4,6,1.1,12.1,1.8,18.1c1,8.5,2.5,16.9,4.6,25.1c4.5,18,11.7,34.8,22.6,50
		c0.4,0.5,0.5,1.1,0.8,1.7c-0.6,0.1-1.3,0.4-1.9,0.4c-0.6-0.1-1.4-0.4-1.8-0.9c-7-8.3-12.6-17.5-17.3-27.3
		c-5.7-12-9.5-24.5-12.2-37.5c-1.8-8.8-3.1-17.6-3.8-26.6c-0.6-7.4-0.9-14.9-1.3-22.3c0-0.7-0.1-1.4-0.2-2.1c0-5.7,0-11.5,0-17.2
		c0.1-0.8,0.1-1.5,0.2-2.3c0.5-8.6,0.9-17.2,1.6-25.8c0.8-9.8,2.5-19.6,4.8-29.2c5.2-22,14-42.3,28.8-59.8C36.4,0,37.3,0,38.3,0z"/>
	<path d="M318.3,133.8c-0.1,3.2-0.3,6.3-0.5,9.5c-0.7,17.1-2.6,34.1-6.9,50.8c-4.7,18.4-12,35.7-23.5,51c-1.3,1.8-2.7,3.5-4.1,5.2
		c-0.6,0.7-2.4,1.1-3.1,0.6c-0.2-0.1-0.3-0.6-0.2-0.9c0.1-0.4,0.4-0.6,0.6-0.9c11.4-16.1,18.9-33.8,23.3-53
		c2.1-9.2,3.6-18.5,4.6-27.9c1.9-18,2.3-36,1.9-54.1c-0.2-6.4-0.3-12.8-0.8-19.1c-0.6-7.6-1.5-15.1-2.5-22.6
		c-1.5-11.5-4.2-22.8-7.9-33.8c-4.4-13-10.5-25.2-18.5-36.4c-0.4-0.5-1.4-1.1-0.3-2c0.8,0,1.7,0,2.5,0c1.3,1.6,2.6,3.2,3.9,4.8
		c11.1,14.6,18.6,31,23.4,48.6c4.8,17.4,7,35.2,7.8,53.2c0.2,3.4,0.3,6.8,0.5,10.3L318.3,133.8L318.3,133.8z"/>
</g>
</svg>
